<svg version="1.1" id="Layer_1" xmlns="http://www.w3.org/2000/svg" xmlns:xlink="http://www.w3.org/1999/xlink" x="0px" y="0px"
	 width="100%" viewBox="0 0 200 200" enable-background="new 0 0 200 200" xml:space="preserve">
<path fill="#16202A" opacity="1.000000" stroke="none" 
	d="
M201.000000,82.000000 
	C201.000000,121.627022 201.000000,161.254044 201.000000,200.940521 
	C134.439667,200.940521 67.879265,200.940521 1.000000,200.940521 
	C1.000000,161.646347 1.000000,122.291832 1.468655,82.470337 
	C68.291542,82.002228 134.645767,82.001114 201.000000,82.000000 
z"/>
<path fill="#16202A" opacity="1.000000" stroke="none" 
	d="
M1.000000,35.000000 
	C1.000000,23.685192 1.000000,12.370384 1.000008,1.056960 
	C67.666687,1.058343 134.333359,1.058343 201.000000,1.058343 
	C201.000000,12.098685 201.000000,23.080685 200.531342,34.531372 
	C133.708450,35.000042 67.354225,35.000019 1.000000,35.000000 
z"/>
<path fill="#71C9F7" opacity="1.000000" stroke="none" 
	d="
M201.000000,47.000000 
	C201.000000,54.354252 201.000000,61.708508 200.531342,69.531380 
	C133.708450,70.000000 67.354225,70.000000 1.000000,70.000000 
	C1.000000,62.645748 1.000000,55.291500 1.468657,47.468811 
	C68.291542,47.000248 134.645767,47.000122 201.000000,47.000000 
z"/>
<path fill="#70C9FA" opacity="1.000000" stroke="none" 
	d="
M1.000000,70.428467 
	C67.354225,70.000000 133.708450,70.000000 200.531342,70.000000 
	C201.000000,71.714355 201.000000,73.428719 200.531342,75.571533 
	C133.708450,76.000000 67.354225,76.000000 1.000000,76.000000 
	C1.000000,74.285645 1.000000,72.571281 1.000000,70.428467 
z"/>
<path fill="#75C8F7" opacity="1.000000" stroke="none" 
	d="
M1.000000,76.399994 
	C67.354225,76.000000 133.708450,76.000000 200.531342,76.000000 
	C201.000000,77.066673 201.000000,78.133339 200.531342,79.601639 
	C133.708450,80.002174 67.354225,80.001091 1.000000,80.000000 
	C1.000000,78.933327 1.000000,77.866661 1.000000,76.399994 
z"/>
<path fill="#10202A" opacity="1.000000" stroke="none" 
	d="
M201.000000,37.000000 
	C201.000000,37.750000 201.000000,38.500000 200.531357,39.620132 
	C133.708481,39.993511 67.354240,39.996758 1.000000,40.000000 
	C1.000000,39.250000 1.000000,38.500000 1.468657,37.375000 
	C68.291542,37.000000 134.645767,37.000000 201.000000,37.000000 
z"/>
<path fill="#76C8F4" opacity="1.000000" stroke="none" 
	d="
M1.000000,45.000000 
	C1.000000,44.250000 1.000000,43.500000 1.468655,42.376675 
	C68.291542,42.002235 134.645767,42.001118 201.000000,42.000000 
	C201.000000,42.750000 201.000000,43.500000 200.531342,44.624649 
	C133.708450,44.999531 67.354225,44.999767 1.000000,45.000000 
z"/>
<path fill="#1C1D26" opacity="1.000000" stroke="none" 
	d="
M201.000000,36.666668 
	C134.645767,37.000000 68.291542,37.000000 1.468657,37.000000 
	C1.000000,36.555553 1.000000,36.111111 1.000000,35.333332 
	C67.354225,35.000019 133.708450,35.000042 200.531342,35.000031 
	C201.000000,35.444447 201.000000,35.888889 201.000000,36.666668 
z"/>
<path fill="#6CCCFC" opacity="1.000000" stroke="none" 
	d="
M1.000000,45.333332 
	C67.354225,44.999767 133.708450,44.999531 200.531342,44.999649 
	C201.000000,45.444447 201.000000,45.888889 201.000000,46.666668 
	C134.645767,47.000122 68.291542,47.000248 1.468657,47.000183 
	C1.000000,46.555553 1.000000,46.111111 1.000000,45.333332 
z"/>
<path fill="#09273F" opacity="1.000000" stroke="none" 
	d="
M1.000000,40.250000 
	C67.354240,39.996758 133.708481,39.993511 200.531357,39.995132 
	C201.000000,40.000000 201.000000,40.500000 200.531342,40.748138 
	C133.708450,40.997517 67.354225,40.998756 1.000000,41.000000 
	C1.000000,41.000000 1.000000,40.500000 1.000000,40.250000 
z"/>
<path fill="#7DC1DE" opacity="1.000000" stroke="none" 
	d="
M1.000000,41.250000 
	C67.354225,40.998756 133.708450,40.997517 200.531342,40.998138 
	C201.000000,41.000000 201.000000,41.500000 201.000000,41.750000 
	C134.645767,42.001118 68.291542,42.002235 1.468655,42.001675 
	C1.000000,42.000000 1.000000,41.500000 1.000000,41.250000 
z"/>
<path fill="#7DC1DE" opacity="1.000000" stroke="none" 
	d="
M1.000000,80.250000 
	C67.354225,80.001091 133.708450,80.002174 200.531342,80.001633 
	C201.000000,80.000000 201.000000,80.500000 200.531357,80.753372 
	C133.708481,81.004501 67.354240,81.002251 1.000000,81.000000 
	C1.000000,81.000000 1.000000,80.500000 1.000000,80.250000 
z"/>
<path fill="#09273F" opacity="1.000000" stroke="none" 
	d="
M1.000000,81.250000 
	C67.354240,81.002251 133.708481,81.004501 200.531357,81.003372 
	C201.000000,81.000000 201.000000,81.500000 201.000000,81.750000 
	C134.645767,82.001114 68.291542,82.002228 1.468655,82.001678 
	C1.000000,82.000000 1.000000,81.500000 1.000000,81.250000 
z"/>
</svg>